<?xml version="1.0" encoding="iso-8859-1"?>
<!-- Uploaded to: SVG Repo, www.svgrepo.com, Generator: SVG Repo Mixer Tools -->
<svg height="800px" width="800px" version="1.1" id="Layer_1" xmlns="http://www.w3.org/2000/svg" xmlns:xlink="http://www.w3.org/1999/xlink" 
	 viewBox="0 0 512.002 512.002" xml:space="preserve">
<path style="fill:#FBB0AD;" d="M458.048,291.389c23.391,0,42.35,18.959,42.35,42.35c0,23.391-18.959,42.35-42.35,42.35h-25.131
	v-84.699H458.048L458.048,291.389z"/>
<path style="fill:#FBCDCB;" d="M432.917,291.389v84.699h-15.814c-28.554,0-54.811-10.025-75.44-26.732l0.035-0.035l55.31-64.209
	c5.708,3.956,12.635,6.277,20.096,6.277H432.917L432.917,291.389z"/>
<path style="fill:#FBB0AD;" d="M397.007,285.112l-55.31,64.209l-0.035,0.035c-22.08-17.868-37.72-43.394-42.825-72.505l0.081-0.012
	l81.706-37.001c0.719,5.291,1.091,10.686,1.091,16.162C381.714,268.056,387.771,278.719,397.007,285.112z"/>
<path style="fill:#FBCDCB;" d="M380.624,239.839l-81.706,37.001l-0.081,0.012c-1.195-6.776-1.822-13.737-1.822-20.85
	c0-9.468-3.736-18.088-9.816-24.447l0.035-0.035l54.428-64.963C362.442,185.156,376.714,210.879,380.624,239.839z"/>
<path style="fill:#FBB0AD;" d="M287.199,231.554c-6.451-6.741-15.524-10.941-25.572-10.941h-2.75v-84.699h2.75
	c30.712,0,58.779,11.591,80.035,30.643l-54.428,64.963L287.199,231.554z"/>
<path style="fill:#FBCDCB;" d="M258.877,135.914v84.699h-2.854c-10.025,0-19.086,4.189-25.526,10.895l-54.451-64.998
	c21.244-19.017,49.288-30.596,79.977-30.596C256.023,135.914,258.877,135.914,258.877,135.914z"/>
<path style="fill:#FBB0AD;" d="M176.046,166.51l54.451,64.998c-6.103,6.358-9.862,15.002-9.862,24.493
	c0,7.101-0.615,14.074-1.81,20.838l-81.798-37.036C140.949,210.832,155.243,185.098,176.046,166.51z"/>
<path style="fill:#FBCDCB;" d="M137.027,239.804l81.798,37.036c-5.105,29.088-20.722,54.602-42.779,72.47l-55.333-64.232
	c9.189-6.405,15.223-17.044,15.223-29.076C135.936,250.513,136.307,245.106,137.027,239.804z"/>
<path style="fill:#FBB0AD;" d="M120.714,285.077l55.333,64.232c-20.641,16.743-46.909,26.779-75.498,26.779H53.952
	c-23.391,0-42.35-18.959-42.35-42.35s18.959-42.35,42.35-42.35h46.596C108.032,291.389,114.993,289.057,120.714,285.077z"/>
<path d="M458.048,387.691h-40.946c-30.012,0-59.397-10.412-82.742-29.32c-24.803-20.071-41.478-48.312-46.951-79.516
	c-1.325-7.506-1.997-15.198-1.997-22.854c0-6.144-2.344-11.977-6.6-16.428c-4.539-4.743-10.644-7.357-17.187-7.357h-5.604
	c-6.526,0-12.619,2.602-17.157,7.328c-4.274,4.452-6.629,10.297-6.629,16.457c0,7.706-0.668,15.397-1.986,22.857
	c-5.471,31.17-22.128,59.397-46.901,79.466c-23.346,18.934-52.754,29.366-82.802,29.366H53.952C24.203,387.691,0,363.489,0,333.739
	s24.203-53.952,53.952-53.952h46.596c4.877,0,9.558-1.464,13.538-4.233c6.414-4.47,10.247-11.781,10.247-19.553
	c0-5.934,0.403-11.909,1.196-17.758c4.186-30.924,19.381-59.474,42.786-80.385c24.165-21.631,55.315-33.547,87.708-33.547h5.604
	c32.426,0,63.6,11.934,87.778,33.606c23.371,20.916,38.544,49.462,42.716,80.37c0.792,5.823,1.194,11.787,1.194,17.715
	c0,7.793,3.847,15.109,10.294,19.57c3.981,2.759,8.643,4.215,13.492,4.215h40.946c6.407,0,11.603,5.196,11.603,11.603
	c0,6.407-5.196,11.603-11.603,11.603h-40.946c-9.595,0-18.83-2.884-26.705-8.343c-12.7-8.79-20.286-23.24-20.286-38.647
	c0-4.885-0.331-9.796-0.985-14.598c-3.436-25.451-15.937-48.957-35.202-66.201c-19.922-17.855-45.596-27.685-72.298-27.685h-5.604
	c-26.672,0-52.328,9.816-72.239,27.639c-19.295,17.239-31.814,40.748-35.26,66.206c-0.654,4.821-0.986,9.745-0.986,14.64
	c0,15.355-7.549,29.784-20.191,38.595c-7.896,5.494-17.16,8.396-26.8,8.396H53.952c-16.954,0-30.747,13.793-30.747,30.747
	s13.793,30.747,30.747,30.747h46.596c25.101,0,48.681-8.364,68.19-24.188c20.426-16.549,34.156-39.796,38.66-65.464
	c1.086-6.146,1.636-12.477,1.636-18.832c0-12.178,4.65-23.731,13.095-32.528c8.956-9.327,20.994-14.463,33.896-14.463h5.604
	c12.935,0,24.993,5.157,33.955,14.522c8.407,8.792,13.036,20.323,13.036,32.469c0,6.308,0.555,12.645,1.645,18.833
	c4.506,25.695,18.25,48.953,38.699,65.501c19.228,15.574,43.427,24.148,68.141,24.148h40.946c16.954,0,30.747-13.793,30.747-30.747
	c0-6.407,5.196-11.603,11.603-11.603c6.407,0,11.603,5.196,11.603,11.603C512,363.489,487.797,387.691,458.048,387.691z"/>
<path d="M489.883,317.405c-3.22,0-6.423-1.332-8.717-3.94c-0.543-0.616-1.116-1.219-1.706-1.793
	c-4.595-4.467-4.7-11.813-0.233-16.407c4.466-4.595,11.813-4.699,16.407-0.233c1.022,0.992,2.015,2.039,2.956,3.107
	c4.231,4.812,3.762,12.143-1.049,16.375C495.337,316.452,492.604,317.405,489.883,317.405z"/>
<path d="M70.521,351.143c-6.408,0-11.603-5.196-11.603-11.603v-10.825c0-6.407,5.194-11.603,11.603-11.603
	c6.408,0,11.603,5.196,11.603,11.603v10.825C82.123,345.947,76.929,351.143,70.521,351.143z"/>
<path d="M176.046,360.918c-3.651,0-6.909-1.685-9.036-4.321l-55.023-63.874c-4.002-4.557-3.834-11.507,0.516-15.857
	c4.531-4.53,11.871-4.538,16.404-0.006c0.203,0.204,0.41,0.426,0.598,0.644l55.333,64.232c1.813,2.105,2.811,4.793,2.811,7.572
	C187.649,355.716,182.455,360.918,176.046,360.918z"/>
<path d="M218.818,288.446c-1.6,0-3.226-0.333-4.779-1.037l-81.798-37.036c-5.837-2.642-8.427-9.518-5.784-15.355
	c2.644-5.836,9.518-8.428,15.355-5.783l81.798,37.036c5.837,2.642,8.427,9.518,5.784,15.355
	C227.455,285.909,223.234,288.446,218.818,288.446z"/>
<path d="M258.879,232.216c-6.408,0-11.603-5.196-11.603-11.603v-84.699c0-6.407,5.194-11.603,11.603-11.603
	c6.407,0,11.603,5.196,11.603,11.603v84.699C270.481,227.02,265.286,232.216,258.879,232.216z"/>
<path d="M230.503,243.119c-3.152,0-6.291-1.277-8.58-3.795l-0.012-0.013c-0.106-0.116-0.209-0.233-0.309-0.354l-54.451-64.998
	c-4.115-4.911-3.469-12.23,1.443-16.346c4.911-4.114,12.229-3.469,16.345,1.443l54.416,64.955c4.019,4.747,3.59,11.868-1.049,16.084
	C236.084,242.121,233.288,243.119,230.503,243.119z"/>
<path d="M341.692,360.924c-2.681,0-5.375-0.925-7.566-2.812c-4.856-4.182-5.4-11.507-1.218-16.363l55.239-64.129
	c3.9-4.62,10.779-5.516,15.73-1.895c5.171,3.784,6.313,11.02,2.529,16.191c-0.181,0.248-0.407,0.535-0.607,0.767l-55.31,64.209
	C348.193,359.557,344.953,360.924,341.692,360.924z"/>
<path d="M298.925,288.446c-4.416,0-8.636-2.535-10.576-6.82c-2.643-5.837-0.055-12.712,5.783-15.355l81.706-37.001
	c0.224-0.102,0.453-0.196,0.683-0.283c5.996-2.265,12.736,0.738,15.002,6.732c2.224,5.884-0.601,12.426-6.374,14.81l-81.443,36.881
	C302.152,288.113,300.525,288.444,298.925,288.446z"/>
<path d="M287.228,243.122c-2.63,0-5.273-0.889-7.445-2.709c-4.911-4.115-5.558-11.433-1.442-16.345l54.384-64.911
	c3.934-4.761,10.98-5.64,15.952-1.88c5.111,3.865,6.14,11.119,2.275,16.23c-0.117,0.154-0.272,0.352-0.397,0.5l-54.428,64.963
	C293.834,241.71,290.542,243.122,287.228,243.122z"/>
<path d="M432.918,387.691c-6.407,0-11.603-5.196-11.603-11.603v-84.699c0-6.407,5.196-11.603,11.603-11.603
	c6.407,0,11.603,5.196,11.603,11.603v84.699C444.52,382.495,439.325,387.691,432.918,387.691z"/>
</svg>